:SAMPLES-PER-SECOND 30
:FULLY-SPECIFIED
:DEGREES
31
root  29.5681 38.8588 -5.8831 -166.083 -86.7089 161.494
RightUpLeg  -18.0453 -5.26225 -2.37315
RightLeg  -3.25466 -11.1861 6.00991
RightFoot  -0.372924 -0.920613 9.5298
RightToes  0.00048216 0.542163 -0.142577
Spine  10.9044 -0.749033 -0.904398
Spine1  12.2044 -0.953808 -0.33504
HEad  -3.19216 6.92784 -6.27684
LeftShoulder1  7.47437 -10.8056 -45.5254
LeftArm  -15.7643 23.6091 -35.2927
LeftForeArm  29.3804 -10.0221 -3.69822
LeftHand  -0.25398 0.0180481 5.50724
RightShoulder  4.42768 7.32143 34.9388
RightArm  11.69 -29.3693 47.4946
RightForeArm  28.696 21.3687 3.8466
RightHand  -0.107471 -6.1357 8.23633
LeftUpLeg  12.9572 7.67682 -1.8121
LeftLeg  12.9149 14.8802 -1.06947
LeftFoot  -21.7963 0.00900794 -1.3268
LeftToes  1.06246e-005 4.65855e-005 -8.18503e-006
32
root  28.5184 38.6682 -5.88967 -140.543 -88.052 135.95
RightUpLeg  -18.2203 -5.71779 -2.64315
RightLeg  -1.596 -12.5306 5.83686
RightFoot  -0.429966 -0.840896 8.75496
RightToes  0.00048216 0.542163 -0.142577
Spine  10.7135 -1.15833 -0.535068
Spine1  12.4539 -1.51553 0.0890963
HEad  -3.70044 6.35008 -5.87093
LeftShoulder1  7.48947 -10.8781 -45.3831
LeftArm  -14.6407 21.9902 -32.7581
LeftForeArm  30.4282 -10.8671 -3.87908
LeftHand  -0.25398 0.0180481 5.50724
RightShoulder  4.3787 7.30802 34.5424
RightArm  15.4081 -28.9823 46.3709
RightForeArm  25.5474 22.5322 3.73229
RightHand  -0.0615021 -5.682 5.83147
LeftUpLeg  14.7252 7.88484 -1.30032
LeftLeg  12.8692 12.953 -1.1689
LeftFoot  -22.6674 -0.0620031 -1.99138
LeftToes  1.06246e-005 4.65855e-005 -8.18503e-006
33
root  27.3829 38.5431 -5.93023 -110.053 -89.8373 105.711
RightUpLeg  -18.6659 -6.61504 -2.54217
RightLeg  1.57798 -15.3013 5.69495
RightFoot  1.70496 -0.58442 5.32379
RightToes  0.00048216 0.542163 -0.142577
Spine  10.009 -1.69204 0.163393
Spine1  12.8082 -2.33643 0.985159
HEad  -3.8953 5.65938 -5.30191
LeftShoulder1  7.54334 -11.0161 -45.2721
LeftArm  -13.8211 20.2925 -30.304
LeftForeArm  31.4577 -11.7763 -3.92586
LeftHand  -0.25398 0.0180481 5.50724
RightShoulder  4.31016 7.18786 34.3591
RightArm  16.79 -27.3977 44.7858
RightForeArm  25.9883 21.9233 3.87424
RightHand  -0.0359113 -5.22539 4.02206
LeftUpLeg  16.3205 8.46138 0.0419167
LeftLeg  12.7863 10.0027 -1.08773
LeftFoot  -23.0052 -0.179919 -3.1161
LeftToes  1.06246e-005 4.65855e-005 -8.18503e-006
34
root  26.1469 38.5058 -5.98143 -0.649879 -87.6551 -3.29603
RightUpLeg  -19.3068 -7.92814 -1.53987
RightLeg  4.98626 -16.9454 5.08968
RightFoot  5.34748 -0.0449562 0.551441
RightToes  0.00048216 0.542163 -0.142577
Spine  8.87942 -2.16827 1.80051
Spine1  13.1761 -2.99436 1.72035
HEad  -3.71891 4.87223 -4.77119
LeftShoulder1  7.58541 -11.1504 -45.102
LeftArm  -13.9756 18.6752 -28.3582
LeftForeArm  31.6805 -12.8809 -3.71444
LeftHand  -0.25398 0.0180481 5.50724
RightShoulder  4.27598 7.06855 34.4887
RightArm  15.2267 -24.5163 42.7257
RightForeArm  29.1203 19.2228 4.75623
RightHand  -0.0246388 -4.86144 2.81107
LeftUpLeg  17.5846 9.31247 2.13118
LeftLeg  13.2034 7.01463 -0.549063
LeftFoot  -22.3069 -0.270987 -4.2108
LeftToes  1.06246e-005 4.65855e-005 -8.18503e-006
35
root  24.8273 38.5085 -6.03174 30.4179 -86.6298 -34.3765
RightUpLeg  -19.989 -10.6563 0.853198
RightLeg  9.26485 -14.4294 3.57152
RightFoot  7.52619 0.49171 -2.68628
RightToes  0.00048216 0.542163 -0.142577
Spine  8.16405 -2.31479 4.26763
Spine1  13.2947 -3.05127 1.8635
HEad  -3.29962 4.23623 -4.49236
LeftShoulder1  7.54726 -11.1659 -44.8163
LeftArm  -15.5288 17.2574 -27.2827
LeftForeArm  30.684 -14.4684 -3.25522
LeftHand  -0.25398 0.0180481 5.50724
RightShoulder  4.37092 7.18599 34.9241
RightArm  8.2234 -20.4688 40.1923
RightForeArm  36.3025 14.4239 6.34165
RightHand  -0.0276399 -4.89297 2.4283
LeftUpLeg  18.7335 10.5884 4.67433
LeftLeg  14.9568 4.45091 0.379461
LeftFoot  -20.9303 -0.407761 -6.36414
LeftToes  1.06246e-005 4.65855e-005 -8.18503e-006
36
root  23.5103 38.5414 -6.10344 49.8521 -86.1509 -54.2544
RightUpLeg  -20.1538 -14.879 4.15202
RightLeg  13.5104 -8.64062 1.73347
RightFoot  6.85845 0.676347 -3.93044
RightToes  0.00048216 0.542163 -0.142577
Spine  8.22492 -2.22506 6.6157
Spine1  13.1547 -2.70293 1.92326
HEad  -2.78626 4.03672 -4.47599
LeftShoulder1  7.42169 -11.0826 -44.2991
LeftArm  -18.0016 16.3616 -27.0606
LeftForeArm  28.7652 -17.0017 -2.9007
LeftHand  -0.25398 0.0180481 5.50724
RightShoulder  4.57985 7.58753 35.3244
RightArm  -1.59405 -15.9597 37.8455
RightForeArm  43.5307 9.26777 6.30085
RightHand  -0.0422968 -5.42649 2.50377
LeftUpLeg  19.2144 11.6201 7.03487
LeftLeg  18.7339 2.7276 1.31576
LeftFoot  -18.6286 -0.549983 -10.52
LeftToes  1.06246e-005 4.65855e-005 -8.18503e-006
37
root  22.2615 38.5906 -6.21321 60.3168 -85.6004 -65.0317
RightUpLeg  -19.7539 -17.6268 6.28909
RightLeg  16.8707 -5.05795 0.572647
RightFoot  4.28716 0.661259 -4.60593
RightToes  0.00048216 0.542163 -0.142577
Spine  8.47788 -2.28576 8.17621
Spine1  12.8828 -2.55216 2.43237
HEad  -2.19769 4.12297 -4.42373
LeftShoulder1  7.29293 -11.0791 -43.5031
LeftArm  -20.1989 16.2155 -27.1896
LeftForeArm  27.1415 -20.8446 -3.16508
LeftHand  -0.25398 0.0180481 5.50724
RightShoulder  4.70639 7.92466 35.2163
RightArm  -8.93658 -11.8382 36.5934
RightForeArm  42.7181 6.40285 4.32273
RightHand  -0.0523739 -6.47353 0.991648
LeftUpLeg  17.1314 10.2989 8.1577
LeftLeg  25.9565 3.71373 2.34831
LeftFoot  -13.744 -0.213059 -14.1623
LeftToes  1.06246e-005 4.65855e-005 -8.18503e-006
38
root  21.1079 38.6659 -6.34023 58.431 -84.7226 -63.0864
RightUpLeg  -18.8196 -18.233 6.72791
RightLeg  18.9522 -5.181 0.457562
RightFoot  1.72761 0.625454 -5.34637
RightToes  0.00048216 0.542163 -0.142577
Spine  8.40382 -2.60073 9.38624
Spine1  12.5585 -2.73461 3.03716
HEad  -1.65753 3.90749 -4.03641
LeftShoulder1  7.25545 -11.2703 -42.6736
LeftArm  -21.1875 16.4287 -27.1027
LeftForeArm  27.3944 -26.101 -4.1312
LeftHand  -0.25398 0.0180481 5.50724
RightShoulder  4.59799 7.83989 34.5749
RightArm  -14.6 -8.3483 36.3119
RightForeArm  33.7548 6.17237 3.14952
RightHand  -0.0128603 -6.8582 -3.74756
LeftUpLeg  12.076 8.38781 8.63116
LeftLeg  36.0061 5.15313 4.38996
LeftFoot  -4.70256 0.756113 -13.2801
LeftToes  1.06246e-005 4.65855e-005 -8.18503e-006
39
root  20.0416 38.6939 -6.44402 54.893 -83.4593 -59.5124
RightUpLeg  -17.6955 -18.1421 6.79516
RightLeg  20.6494 -6.46111 0.686562
RightFoot  -0.51073 0.513594 -5.42953
RightToes  0.00048216 0.542163 -0.142577
Spine  8.33055 -2.96081 11.1422
Spine1  12.4235 -2.77795 3.23063
HEad  -1.50949 3.07144 -3.34431
LeftShoulder1  7.29792 -11.5358 -42.1318
LeftArm  -21.2559 16.2761 -26.7696
LeftForeArm  30.3857 -32.553 -5.45828
LeftHand  -0.25398 0.0180481 5.50724
RightShoulder  4.37764 7.48116 33.9033
RightArm  -17.5261 -5.08086 36.1011
RightForeArm  21.3981 7.89305 3.47324
RightHand  -0.0867146 -4.56975 -9.03904
LeftUpLeg  5.71833 6.33816 9.08953
LeftLeg  46.4245 5.55539 6.60225
LeftFoot  4.86392 1.19888 -8.58548
LeftToes  1.06246e-005 4.65855e-005 -8.18503e-006
40
root  19.017 38.7239 -6.53669 55.3428 -82.6683 -60.3427
RightUpLeg  -15.9866 -17.906 6.79324
RightLeg  21.9526 -7.12932 0.77953
RightFoot  -2.71979 0.339305 -4.73351
RightToes  0.00048216 0.542163 -0.142577
Spine  8.56618 -2.97235 12.7228
Spine1  12.5956 -2.35301 3.04395
HEad  -1.91738 2.03204 -2.62383
LeftShoulder1  7.32603 -11.6748 -41.8914
LeftArm  -21.3874 15.5979 -26.6282
LeftForeArm  35.5828 -39.5854 -7.01647
LeftHand  -0.25398 0.0180481 5.50724
RightShoulder  4.29317 7.35715 33.5828
RightArm  -17.7768 -1.66943 35.1644
RightForeArm  12.3269 10.8472 4.42211
RightHand  -0.365324 -1.51615 -10.8814
LeftUpLeg  0.131729 5.15267 9.51445
LeftLeg  54.9133 4.67292 7.57727
LeftFoot  8.9502 0.848581 -4.94902
LeftToes  1.06246e-005 4.65855e-005 -8.18503e-006
